<svg preserveAspectRatio="none" width="100%" height="100%" overflow="visible" style="display: block;" viewBox="0 0 17.7754 18.026" fill="none" xmlns="http://www.w3.org/2000/svg">
<g id="Icon">
<path d="M14.1073 14.1837C14.1073 15.8916 12.7213 17.276 11.0116 17.276C9.30187 17.276 7.91587 15.8916 7.91587 14.1837C7.91587 12.4759 9.30187 11.0914 11.0116 11.0914C12.7213 11.0914 14.1073 12.4759 14.1073 14.1837Z" stroke="var(--stroke-0, #727272)" stroke-width="1.5" stroke-linejoin="round"/>
<path d="M1.99147 4.012L7.46811 8.60239L0.750016 11.0449L1.99147 4.012Z" stroke="var(--stroke-0, #727272)" stroke-width="1.5" stroke-linejoin="round"/>
<path d="M11.0106 1.49135C11.1536 0.958129 11.7017 0.641697 12.235 0.784436L16.2835 1.86803C16.8172 2.01088 17.1339 2.55947 16.9908 3.09311L15.9065 7.13528C15.7635 7.6685 15.2154 7.98493 14.6821 7.84219L10.6336 6.7586C10.0999 6.61575 9.78318 6.06715 9.92633 5.53352L11.0106 1.49135Z" stroke="var(--stroke-0, #727272)" stroke-width="1.5" stroke-linejoin="round"/>
</g>
</svg>
