<svg preserveAspectRatio="none" width="100%" height="100%" overflow="visible" style="display: block;" viewBox="0 0 18.6213 18.6213" fill="none" xmlns="http://www.w3.org/2000/svg">
<path id="Icon" d="M9.75 5.87132L9.21967 5.34099C9.07902 5.48164 9 5.67241 9 5.87132H9.75ZM9.75 8.87132H9C9 9.28553 9.33579 9.62132 9.75 9.62132V8.87132ZM12.75 8.87132V9.62132C12.9489 9.62132 13.1397 9.5423 13.2803 9.40165L12.75 8.87132ZM14.25 1.37132L14.7803 1.90165V1.90165L14.25 1.37132ZM17.25 4.37132L16.7197 3.84099V3.84099L17.25 4.37132ZM17.25 1.37132L16.7197 1.90165V1.90165L17.25 1.37132ZM8.25 2.12132C8.66421 2.12132 9 1.78553 9 1.37132C9 0.957106 8.66421 0.62132 8.25 0.62132V1.37132V2.12132ZM18 10.3713C18 9.95711 17.6642 9.62132 17.25 9.62132C16.8358 9.62132 16.5 9.95711 16.5 10.3713H17.25H18ZM2.38803 17.5443L2.72852 16.8761H2.72852L2.38803 17.5443ZM1.07698 16.2333L0.408726 16.5738H0.408726L1.07698 16.2333ZM15.612 17.5443L15.2715 16.8761H15.2715L15.612 17.5443ZM16.923 16.2333L16.2548 15.8928V15.8928L16.923 16.2333ZM1.07698 3.00935L1.74524 3.34984V3.34984L1.07698 3.00935ZM2.38803 1.6983L2.72852 2.36656V2.36656L2.38803 1.6983ZM9.75 5.87132H9V8.87132H9.75H10.5V5.87132H9.75ZM9.75 8.87132V9.62132H12.75V8.87132V8.12132H9.75V8.87132ZM9.75 5.87132L10.2803 6.40165L14.7803 1.90165L14.25 1.37132L13.7197 0.84099L9.21967 5.34099L9.75 5.87132ZM17.25 4.37132L16.7197 3.84099L12.2197 8.34099L12.75 8.87132L13.2803 9.40165L17.7803 4.90165L17.25 4.37132ZM17.25 1.37132L16.7197 1.90165C17.2552 2.43718 17.2552 3.30546 16.7197 3.84099L17.25 4.37132L17.7803 4.90165C18.9016 3.78033 18.9017 1.96231 17.7803 0.84099L17.25 1.37132ZM14.25 1.37132L14.7803 1.90165C15.3159 1.36612 16.1841 1.36612 16.7197 1.90165L17.25 1.37132L17.7803 0.84099C16.659 -0.28033 14.841 -0.28033 13.7197 0.84099L14.25 1.37132ZM12.45 17.8713V17.1213H5.55V17.8713V18.6213H12.45V17.8713ZM0.75 13.0713H1.5V6.17132H0.75H4.17233e-07V13.0713H0.75ZM5.55 1.37132V2.12132H8.25V1.37132V0.62132H5.55V1.37132ZM17.25 10.3713H16.5V13.0713H17.25H18V10.3713H17.25ZM5.55 17.8713V17.1213C4.69755 17.1213 4.10331 17.1207 3.64068 17.0829C3.1868 17.0459 2.92604 16.9767 2.72852 16.8761L2.38803 17.5443L2.04754 18.2126C2.49175 18.4389 2.9719 18.5333 3.51853 18.578C4.05641 18.6219 4.7223 18.6213 5.55 18.6213V17.8713ZM0.75 13.0713H4.17233e-07C4.17233e-07 13.899 -0.000582874 14.5649 0.0433638 15.1028C0.0880258 15.6494 0.182385 16.1296 0.408726 16.5738L1.07698 16.2333L1.74524 15.8928C1.6446 15.6953 1.57547 15.4345 1.53838 14.9806C1.50058 14.518 1.5 13.9238 1.5 13.0713H0.75ZM2.38803 17.5443L2.72852 16.8761C2.30516 16.6604 1.96095 16.3162 1.74524 15.8928L1.07698 16.2333L0.408726 16.5738C0.768251 17.2794 1.34193 17.8531 2.04754 18.2126L2.38803 17.5443ZM12.45 17.8713V18.6213C13.2777 18.6213 13.9436 18.6219 14.4815 18.578C15.0281 18.5333 15.5082 18.4389 15.9525 18.2126L15.612 17.5443L15.2715 16.8761C15.074 16.9767 14.8132 17.0459 14.3593 17.0829C13.8967 17.1207 13.3025 17.1213 12.45 17.1213V17.8713ZM17.25 13.0713H16.5C16.5 13.9238 16.4994 14.518 16.4616 14.9806C16.4245 15.4345 16.3554 15.6953 16.2548 15.8928L16.923 16.2333L17.5913 16.5738C17.8176 16.1296 17.912 15.6494 17.9566 15.1028C18.0006 14.5649 18 13.899 18 13.0713H17.25ZM15.612 17.5443L15.9525 18.2126C16.6581 17.8531 17.2318 17.2794 17.5913 16.5738L16.923 16.2333L16.2548 15.8928C16.0391 16.3162 15.6948 16.6604 15.2715 16.8761L15.612 17.5443ZM0.75 6.17132H1.5C1.5 5.31887 1.50058 4.72463 1.53838 4.262C1.57547 3.80812 1.6446 3.54736 1.74524 3.34984L1.07698 3.00935L0.408726 2.66886C0.182385 3.11307 0.0880258 3.59321 0.0433638 4.13985C-0.000582874 4.67773 4.17233e-07 5.34362 4.17233e-07 6.17132H0.75ZM5.55 1.37132V0.62132C4.7223 0.62132 4.05641 0.620737 3.51853 0.664683C2.9719 0.709345 2.49175 0.803705 2.04754 1.03005L2.38803 1.6983L2.72852 2.36656C2.92604 2.26592 3.1868 2.19678 3.64068 2.1597C4.10331 2.1219 4.69755 2.12132 5.55 2.12132V1.37132ZM1.07698 3.00935L1.74524 3.34984C1.96095 2.92648 2.30516 2.58227 2.72852 2.36656L2.38803 1.6983L2.04754 1.03005C1.34193 1.38957 0.768251 1.96325 0.408726 2.66886L1.07698 3.00935Z" fill="var(--stroke-0, #727272)"/>
</svg>
